<?xml version="1.0" encoding="UTF-8"?>
<svg class="background" width="1920" height="800" enable-background="new 0 0 1920 1440" version="1.1" viewBox="0 0 1920 800" xml:space="preserve" xmlns="http://www.w3.org/2000/svg" xmlns:cc="http://creativecommons.org/ns#" xmlns:dc="http://purl.org/dc/elements/1.1/" xmlns:rdf="http://www.w3.org/1999/02/22-rdf-syntax-ns#"><metadata><rdf:RDF><cc:Work rdf:about=""><dc:format>image/svg+xml</dc:format><dc:type rdf:resource="http://purl.org/dc/dcmitype/StillImage"/><dc:title/></cc:Work></rdf:RDF></metadata> 
    <path d="m1505.5 682.74c-214.78 107.41-277.05-206.82-425.5-189.85-175.12 78.176-273.72 143.24-474.49 146.37-105.53 5.8801-304.48-439.01-408.84-428.88-31.392-9.654-223.22 126.39-213.46 250.96l8.3465 983.83h1939c12.427-570.25 33.332-1110-92.082-1140.9-121.02-25.416-254.75 358.64-333.01 378.49z" fill="#8ab3e3" stroke-width="1.3012"/><path d="m1844.8 691.1c-53.824-5.3558-105.23 11.675-138.78 37.889-70.547 61.777-124.63 101.13-184.18 149.59-74.46 38.987-145.19 6.3423-233.17-9.8021-86.018-12.524-253.02 146.11-324.66 101.34-74.77-45.591-139.79-87.069-192.54-132.11-53.327-42.912-126.72-146.21-325.52-144.34-104.5 3.5076-228.56 141.31-304.92 106.07-31.083-5.7587-162.08-121.78-143.76-41.958l2.697 682.22h1920l-2.697-674.34c-10.555-2.0604-24.176-62.808-72.465-74.56z" fill="#81aadd"/>
    <path d="m1678.9 674.45c-60.966 75.512-12.803 124.59-100.77 105.6-86.006-14.728-226.25-123.27-297.88-175.93-74.76-53.616-201.52 12.972-321.68 67.864-150.4 92.456-194.39 84.821-393.16 87.021-104.48 4.125-255.49-184.38-358.81-177.28-31.079-6.7724-221 88.663-211.33 176.05l8.2633 690.17h1919.7l8.0899-855.06c-170.73-176.28-174.53-33.502-252.45 81.558z" fill="#466cb6" stroke-width="1.0844"/>
    <path d="m1693.2 768.32c-88.702-70.799-101.73-138.13-227.54-126.04-144.87 66.098-172.13 263.7-292.29 306.46-359.21 74.214-326.37-527.01-678.89-350.87-31.079-5.2757-507.22 663.54-488.91 736.67l7e-7 113.4h1919.7l5.3933-401.82c-169.4-200.09-129.79-159.4-237.49-277.8z" fill="#27428f" stroke-width=".95708"/>
    <path d="m1600.4 986.18c-177.23-107.28-308.61-216.4-416.33-166.92-259.43 193.02-132.21 66.817-436.19 353.23-206.53 67.751-760.59 128.93-742.39 186.55v88.908h1919.7l5.3933-315.04c-295.27-93.126-124.77-33.716-330.2-146.73z" fill="#122360" stroke-width=".84744"/>
    <path d="m1680.9 1077.9c-81.916 68.517-107.36 86.736-228.77 156.91-195.22 89.71-535.54 144.61-606.99 148.91-104.48 2.0267-438.87-206.54-577.25-278.56-125.46-70.744-288.8-166.71-270.49-120.59l2.5672 465.43 1925.3 7.9491 5.3935-401.83c-178.83-46.161-150.26-37.437-249.76 21.791z" fill="#071134" stroke-width=".7601"/>
</svg>
