<svg width="80" height="80" viewBox="0 0 80 80" fill="none" xmlns="http://www.w3.org/2000/svg">
<path d="M40 4.99999V22.5C40 24.4891 40.7902 26.3968 42.1967 27.8033C43.6032 29.2098 45.5109 30 47.5 30H65V67.5C65 69.4891 64.2098 71.3968 62.8033 72.8033C61.3968 74.2098 59.4891 75 57.5 75H22.5C20.5109 75 18.6032 74.2098 17.1967 72.8033C15.7902 71.3968 15 69.4891 15 67.5V12.5C15 10.5109 15.7902 8.60321 17.1967 7.19669C18.6032 5.79017 20.5109 4.99999 22.5 4.99999H40Z" fill="#455A64"/>
<path d="M45 6.24998V22.5C45 23.163 45.2634 23.7989 45.7322 24.2678C46.2011 24.7366 46.837 25 47.5 25H63.75L45 6.24998Z" fill="#455A64"/>
</svg>
