<svg width="80" height="80" viewBox="0 0 80 80" fill="none" xmlns="http://www.w3.org/2000/svg">
<path d="M73.3333 28.6933V55.8333C73.3335 58.6004 72.2748 61.2627 70.3744 63.2741C68.474 65.2854 65.876 66.4933 63.1133 66.65L62.5 66.6667H17.5C14.7329 66.6668 12.0706 65.6081 10.0592 63.7077C8.04788 61.8074 6.83999 59.2093 6.68332 56.4467L6.66666 55.8333V28.6933L38.84 45.5467C39.1979 45.7341 39.5959 45.8321 40 45.8321C40.404 45.8321 40.8021 45.7341 41.16 45.5467L73.3333 28.6933ZM17.5 13.3333H62.5C65.1853 13.333 67.775 14.33 69.7668 16.1309C71.7586 17.9318 73.0106 20.4083 73.28 23.08L40 40.5133L6.71999 23.08C6.9784 20.5144 8.14349 18.1251 10.0058 16.3415C11.8682 14.558 14.3056 13.4973 16.88 13.35L17.5 13.3333H62.5H17.5Z" fill="#455A64"/>
</svg>
