<svg width="1012" height="583" viewBox="0 0 1012 583" fill="none" xmlns="http://www.w3.org/2000/svg">
<path d="M578.106 80.6563C565.431 75.5348 551.619 73.1486 537.756 73.6849C523.892 74.2211 510.355 77.6654 498.206 83.7472C472.638 96.7961 455.248 120.798 428.955 132.597C399.122 146.035 363.897 141.332 330.612 141.869C297.328 142.407 258.948 152.271 246.697 180.344C236.328 204.064 248.979 231.855 240.135 256.071C232.729 276.135 212.48 289.453 196.793 305.096C170.781 331.059 156.265 367.33 162.442 401.961C168.619 436.593 197.193 468.174 234.714 476.694C275.494 485.94 320.451 468.711 359.779 482.164C386.25 491.235 405.018 512.562 428.94 526.256C469.202 549.29 524.765 547.865 563.53 522.802C583.35 509.995 598.667 491.893 619.286 480.175C672.613 449.776 746.959 468.832 801.144 439.644C844.264 416.462 863.373 362.707 843.45 320.967C828.844 290.434 797.263 268.341 784.198 237.257C773.163 211.159 776.525 182.159 773.118 154.354C769.711 126.549 755.506 96.0301 726.102 87.7116C706.697 82.2286 685.944 87.9132 665.799 90.3053C634.203 94.0547 606.977 92.993 578.165 80.6563" fill="#E0E0E0"/>
<path d="M114.7 4.98314C89.7103 12.4147 63.0619 30.5166 57.3145 53.8461C51.5671 77.1757 58.4403 102.293 73.6087 121.765C85.222 136.642 103.857 149.073 123.81 147.003C138.622 145.444 151.184 136.252 165.538 132.449C178.765 128.928 193.075 130.084 206.303 126.576C234.018 119.239 251.378 90.8831 247.586 64.9062C243.794 38.9292 221.767 16.8898 195.015 7.03925C168.263 -2.81129 137.66 -1.60181 110.108 6.20606" fill="#E0E0E0"/>
<path d="M875.86 466.36C855.226 462.651 832.799 470.566 819.69 485.496C806.58 500.427 802.981 521.552 809.691 539.641C816.401 557.729 832.947 572.391 852.737 578.828C867.209 583.531 884.185 583.787 897.176 576.382C908.374 570.026 915.336 558.912 919.129 547.368C924.95 529.777 924.076 509.955 914.3 493.869C904.523 477.782 888.925 465.07 868.676 465.446" fill="#EBEBEB"/>
<path d="M937.482 324.555L938.193 325.724C938.988 327.037 940.187 328.111 941.644 328.815L942.933 329.46L941.644 330.091C940.183 330.797 938.983 331.877 938.193 333.196L937.482 334.352L936.771 333.196C935.972 331.882 934.774 330.805 933.319 330.091L932.031 329.46L933.319 328.815C934.77 328.103 935.967 327.031 936.771 325.724L937.482 324.555Z" fill="#EBEBEB"/>
<path d="M115.011 381.602L115.707 382.758C116.505 384.071 117.703 385.149 119.158 385.862L120.462 386.494L119.158 387.139C117.708 387.851 116.51 388.923 115.707 390.23L115.011 391.399L114.3 390.23C113.496 388.923 112.299 387.851 110.848 387.139L109.545 386.494L110.848 385.862C112.303 385.149 113.501 384.071 114.3 382.758L115.011 381.602Z" fill="#EBEBEB"/>
<path d="M965.73 456.052L966.93 458.068C968.294 460.34 970.351 462.206 972.855 463.443L975.077 464.545L972.855 465.634C970.351 466.871 968.294 468.738 966.93 471.009L965.73 473.025L964.515 471.009C963.152 468.738 961.094 466.871 958.59 465.634L956.368 464.545L958.59 463.443C961.094 462.206 963.152 460.34 964.515 458.068L965.73 456.052Z" fill="#EBEBEB"/>
<path d="M84.4369 510.721L85.6515 512.737C87.0152 515.008 89.0725 516.875 91.5767 518.112L93.7986 519.214L91.5767 520.316C89.0725 521.553 87.0152 523.42 85.6515 525.691L84.4369 527.694L83.237 525.691C81.8734 523.42 79.816 521.553 77.3119 520.316L75.0899 519.214L77.3119 518.112C79.816 516.875 81.8734 515.008 83.237 512.737L84.4369 510.721Z" fill="#EBEBEB"/>
<path d="M423.415 51.8975L424.63 53.9133C425.993 56.1852 428.051 58.0517 430.555 59.2888L432.777 60.3908L430.555 61.4927C428.051 62.7299 425.993 64.5964 424.63 66.8682L423.415 68.8706L422.2 66.8682C420.837 64.5964 418.779 62.7299 416.275 61.4927L414.098 60.337L416.305 59.2351C418.809 57.9979 420.866 56.1314 422.23 53.8596L423.415 51.8975Z" fill="#EBEBEB"/>
<path d="M740.678 232.083L741.878 234.099C743.241 236.371 745.299 238.237 747.803 239.475L750.025 240.576L747.803 241.665C745.299 242.902 743.241 244.769 741.878 247.04L740.678 249.056L739.463 247.04C738.1 244.769 736.042 242.902 733.538 241.665L731.316 240.576L733.538 239.475C736.042 238.237 738.1 236.371 739.463 234.099L740.678 232.083Z" fill="#FAFAFA"/>
<path d="M298.039 341.81C296.661 346.836 367.748 400.147 536.201 389.181C680.952 379.774 751.847 319.636 751.847 319.636L298.039 341.81Z" fill="#F991DB"/>
<path opacity="0.2" d="M298.039 341.81C296.661 346.836 367.748 400.147 536.201 389.181C680.952 379.774 751.847 319.636 751.847 319.636L298.039 341.81Z" fill="black"/>
<path d="M525.111 356.621C650.832 351.182 752.102 334.465 751.304 319.282C750.506 304.099 647.942 296.2 522.222 301.638C396.501 307.077 295.231 323.794 296.029 338.977C296.827 354.16 399.391 362.059 525.111 356.621Z" fill="#F991DB"/>
<path d="M419.431 322.095C419.431 322.095 412.794 228.683 514.885 216.844C616.975 205.004 626.07 303.147 626.07 303.147C626.07 303.147 559.99 348.838 419.431 322.095Z" fill="#F5F5F5"/>
<path d="M472.09 239.071C472.431 239.515 468.891 242.001 463.721 246.463C462.447 247.578 461.04 248.801 459.618 250.199C458.196 251.596 456.655 253.088 455.174 254.687C448.578 261.722 443.094 269.556 438.88 277.963C437.947 279.925 437.013 281.766 436.317 283.54C435.621 285.314 434.836 286.98 434.332 288.512C432.081 294.64 431.118 298.605 430.525 298.524C429.933 298.443 430.081 294.345 431.71 287.773C432.125 286.147 432.614 284.373 433.295 282.519C433.977 280.664 434.777 278.689 435.621 276.619C439.604 267.705 445.319 259.512 452.493 252.429C454.182 250.844 455.752 249.312 457.381 248.008C458.835 246.761 460.358 245.581 461.944 244.474C467.721 240.415 471.853 238.682 472.09 239.071Z" fill="white"/>
<path d="M734.131 317.809C733.955 318.063 733.746 318.298 733.508 318.507C732.853 319.13 732.145 319.706 731.39 320.228C728.548 322.067 725.437 323.537 722.147 324.595C700.742 332.125 678.251 336.814 655.37 338.518C650.926 338.827 647.431 338.974 645.001 339.028H642.172C641.842 339.049 641.51 339.049 641.18 339.028C641.504 338.956 641.838 338.919 642.172 338.921L644.986 338.746C647.445 338.598 650.986 338.383 655.356 338.007C678.153 336.043 700.565 331.362 722.014 324.084C725.288 323.078 728.404 321.691 731.286 319.959C732.275 319.287 733.224 318.569 734.131 317.809Z" fill="white"/>
<path d="M496.709 390.928C496.213 390.719 495.746 390.457 495.317 390.149C494.084 389.386 492.911 388.546 491.806 387.636C490.143 386.301 488.598 384.849 487.185 383.295C485.453 381.393 483.902 379.361 482.548 377.221C481.217 375.069 480.083 372.822 479.156 370.502C478.417 368.603 477.833 366.659 477.408 364.683C477.115 363.352 476.918 362.005 476.816 360.651C476.755 360.155 476.755 359.655 476.816 359.159C476.964 359.159 477.127 361.256 477.956 364.535C478.447 366.469 479.076 368.372 479.838 370.233C480.797 372.502 481.93 374.706 483.23 376.831C484.572 378.931 486.082 380.938 487.748 382.838C489.12 384.386 490.605 385.85 492.192 387.219C494.887 389.584 496.798 390.807 496.709 390.928Z" fill="#263238"/>
<path d="M489.718 369.588C489.718 369.682 489.347 369.843 489.229 370.34C489.183 370.469 489.172 370.605 489.195 370.738C489.218 370.871 489.275 370.997 489.362 371.106C489.474 371.205 489.612 371.275 489.763 371.31C489.914 371.345 490.072 371.344 490.222 371.306C490.372 371.267 490.509 371.194 490.618 371.093C490.727 370.992 490.805 370.867 490.843 370.73C490.855 370.596 490.833 370.461 490.779 370.335C490.725 370.21 490.641 370.096 490.532 370.004C490.132 369.628 489.703 369.695 489.673 369.588C489.644 369.48 490.147 369.198 490.873 369.588C491.084 369.71 491.257 369.88 491.376 370.079C491.495 370.279 491.557 370.503 491.555 370.73C491.54 371.023 491.421 371.303 491.216 371.529C491.01 371.754 490.728 371.913 490.414 371.98C490.143 372.048 489.857 372.044 489.589 371.97C489.32 371.896 489.08 371.754 488.897 371.561C488.714 371.369 488.595 371.132 488.554 370.881C488.513 370.629 488.552 370.371 488.666 370.139C489.096 369.426 489.747 369.494 489.718 369.588Z" fill="#263238"/>
<path d="M496.354 380.352C496.354 380.446 495.998 380.594 495.865 381.105C495.824 381.233 495.815 381.369 495.838 381.501C495.861 381.634 495.916 381.76 495.998 381.871C496.104 381.985 496.246 382.067 496.405 382.106C496.564 382.144 496.733 382.137 496.887 382.086C497.049 382.057 497.197 381.983 497.311 381.875C497.425 381.767 497.5 381.629 497.524 381.481C497.533 381.349 497.51 381.216 497.456 381.093C497.402 380.97 497.319 380.859 497.213 380.769C496.813 380.392 496.384 380.446 496.354 380.352C496.324 380.258 496.828 379.962 497.554 380.352C497.764 380.475 497.937 380.644 498.057 380.844C498.176 381.043 498.237 381.267 498.235 381.494C498.197 381.671 498.121 381.839 498.011 381.989C497.9 382.138 497.757 382.266 497.591 382.364C497.425 382.463 497.239 382.53 497.044 382.562C496.849 382.594 496.648 382.59 496.455 382.551C496.261 382.511 496.078 382.437 495.917 382.332C495.756 382.227 495.62 382.093 495.516 381.94C495.413 381.786 495.345 381.615 495.315 381.437C495.286 381.259 495.297 381.077 495.347 380.903C495.732 380.177 496.384 380.258 496.354 380.352Z" fill="#263238"/>
<path d="M296.558 338.074C296.944 337.919 297.346 337.797 297.757 337.711L301.253 336.811C304.216 336.045 308.66 335.01 314.185 333.814C325.132 331.422 340.404 328.573 357.439 326.356C374.473 324.138 390.027 323.05 401.285 322.566C406.914 322.324 411.476 322.203 414.616 322.19H418.246C418.669 322.155 419.096 322.155 419.519 322.19C419.103 322.254 418.682 322.29 418.26 322.297L414.631 322.445C411.491 322.552 406.928 322.741 401.3 323.05C390.057 323.654 374.547 324.85 357.527 327.081C340.507 329.312 325.265 332.054 314.289 334.325C308.793 335.454 304.364 336.408 301.313 337.107L297.787 337.886C297.383 337.978 296.972 338.041 296.558 338.074Z" fill="#263238"/>
<path d="M627.655 348.597C626.991 348.298 626.356 347.947 625.759 347.548L620.708 344.511C616.442 341.944 610.502 338.477 603.807 334.835C597.111 331.193 590.934 328.116 586.431 325.885L581.099 323.278C580.427 322.985 579.783 322.644 579.173 322.257C579.882 322.463 580.571 322.724 581.232 323.036C582.535 323.574 584.402 324.38 586.683 325.442C591.26 327.538 597.496 330.589 604.207 334.231C610.917 337.872 616.827 341.434 621.019 344.095C623.108 345.438 624.797 346.54 625.937 347.32C626.55 347.699 627.125 348.126 627.655 348.597Z" fill="#263238"/>
<path d="M586.15 330.965C586.239 331.046 585.794 331.382 585.824 332.08C585.831 332.456 586.002 332.813 586.298 333.075C586.493 333.193 586.717 333.264 586.95 333.282C587.183 333.3 587.418 333.265 587.632 333.179C587.846 333.093 588.032 332.96 588.175 332.791C588.317 332.623 588.41 332.425 588.446 332.215C588.445 332.027 588.401 331.842 588.317 331.671C588.233 331.499 588.11 331.346 587.957 331.22C587.409 330.737 586.846 330.804 586.831 330.696C586.816 330.589 587.438 330.307 588.312 330.831C588.556 330.984 588.759 331.183 588.907 331.416C589.056 331.648 589.146 331.907 589.172 332.174C589.17 332.524 589.054 332.866 588.837 333.156C588.621 333.445 588.314 333.67 587.957 333.801C587.613 333.951 587.228 334.004 586.85 333.954C586.473 333.904 586.12 333.752 585.839 333.518C585.627 333.325 585.467 333.089 585.372 332.831C585.277 332.572 585.249 332.297 585.291 332.027C585.424 331.113 586.135 330.884 586.15 330.965Z" fill="#263238"/>
<path d="M394.471 325.764C394.471 325.845 394.115 326.181 394.145 326.866C394.144 327.053 394.185 327.237 394.267 327.409C394.348 327.58 394.468 327.734 394.619 327.861C394.813 327.982 395.038 328.056 395.272 328.077C395.506 328.097 395.743 328.062 395.958 327.976C396.173 327.889 396.361 327.754 396.502 327.584C396.644 327.413 396.735 327.212 396.767 327.001C396.764 326.815 396.72 326.633 396.635 326.464C396.551 326.295 396.43 326.144 396.278 326.02C395.73 325.522 395.167 325.603 395.152 325.495C395.137 325.388 395.76 325.106 396.633 325.63C396.878 325.781 397.082 325.981 397.231 326.213C397.38 326.446 397.469 326.706 397.493 326.974C397.492 327.322 397.376 327.662 397.159 327.95C396.943 328.238 396.636 328.459 396.278 328.586C395.932 328.738 395.544 328.792 395.164 328.741C394.784 328.691 394.429 328.539 394.145 328.304C393.938 328.108 393.782 327.872 393.69 327.614C393.598 327.355 393.571 327.081 393.612 326.812C393.745 325.912 394.456 325.67 394.471 325.764Z" fill="#263238"/>
<path d="M359.112 329.809C359.112 329.89 358.757 330.212 358.772 330.911C358.777 331.098 358.822 331.282 358.906 331.453C358.99 331.624 359.111 331.778 359.261 331.906C359.448 332.036 359.673 332.117 359.908 332.138C360.144 332.159 360.381 332.121 360.594 332.027C360.816 331.949 361.009 331.815 361.15 331.641C361.292 331.468 361.376 331.261 361.394 331.046C361.395 330.859 361.354 330.674 361.272 330.503C361.19 330.332 361.07 330.178 360.92 330.051C360.372 329.567 359.809 329.635 359.794 329.527C359.779 329.42 360.401 329.151 361.275 329.675C361.519 329.826 361.722 330.025 361.869 330.258C362.015 330.491 362.101 330.751 362.119 331.019C362.126 331.367 362.015 331.708 361.8 331.997C361.586 332.286 361.278 332.507 360.92 332.631C360.574 332.783 360.186 332.837 359.805 332.786C359.425 332.736 359.071 332.584 358.787 332.349C358.579 332.153 358.424 331.917 358.332 331.659C358.239 331.4 358.212 331.127 358.253 330.858C358.401 329.957 359.098 329.715 359.112 329.809Z" fill="#263238"/>
<path d="M318.792 335.454C318.866 335.534 318.421 335.87 318.451 336.569C318.452 336.756 318.495 336.942 318.579 337.113C318.664 337.284 318.786 337.438 318.94 337.563C319.128 337.695 319.353 337.775 319.589 337.794C319.825 337.813 320.063 337.77 320.273 337.671C320.495 337.596 320.688 337.466 320.83 337.294C320.972 337.122 321.056 336.917 321.073 336.703C321.065 336.328 320.895 335.971 320.599 335.709C320.051 335.225 319.473 335.292 319.473 335.185C319.473 335.077 320.08 334.795 320.954 335.333C321.198 335.484 321.4 335.684 321.547 335.917C321.693 336.149 321.779 336.409 321.799 336.676C321.8 337.023 321.686 337.362 321.472 337.65C321.258 337.937 320.954 338.16 320.599 338.289C320.253 338.44 319.865 338.494 319.485 338.444C319.105 338.394 318.75 338.242 318.466 338.007C318.26 337.809 318.105 337.574 318.01 337.316C317.916 337.058 317.884 336.785 317.918 336.515C318.066 335.601 318.777 335.373 318.792 335.454Z" fill="#263238"/>
<path d="M602.296 340.856C602.385 340.936 601.94 341.272 601.97 341.958C601.968 342.144 602.01 342.329 602.092 342.5C602.173 342.672 602.293 342.825 602.444 342.952C602.63 343.086 602.855 343.168 603.091 343.189C603.327 343.211 603.565 343.171 603.777 343.073C604.001 342.996 604.196 342.863 604.34 342.689C604.484 342.516 604.571 342.309 604.592 342.092C604.589 341.907 604.545 341.724 604.46 341.555C604.376 341.387 604.255 341.235 604.103 341.111C603.555 340.614 602.992 340.695 602.977 340.587C602.962 340.48 603.584 340.197 604.458 340.721C604.703 340.873 604.907 341.073 605.056 341.305C605.205 341.538 605.294 341.797 605.318 342.065C605.337 342.315 605.297 342.565 605.202 342.8C605.107 343.034 604.958 343.248 604.765 343.427C604.573 343.606 604.34 343.746 604.084 343.837C603.828 343.929 603.553 343.97 603.277 343.959C603.002 343.948 602.733 343.883 602.486 343.771C602.24 343.658 602.023 343.5 601.85 343.306C601.676 343.112 601.549 342.887 601.478 342.645C601.407 342.403 601.393 342.151 601.437 341.904C601.57 341.004 602.281 340.762 602.296 340.856Z" fill="#263238"/>
<path d="M530.705 227.366C526.492 226.08 522.024 225.629 517.602 226.041C513.18 226.454 508.906 227.722 505.07 229.76C501.234 231.797 497.924 234.557 495.362 237.853C492.801 241.15 491.048 244.905 490.221 248.868L490.088 249.607C489.576 252.316 489.576 255.083 490.088 257.791C491.042 262.831 493.054 267.658 496.013 272.01C504.501 284.494 509.049 284.897 509.878 292.02C510.708 299.142 511.893 300.661 507.878 303.698C507.878 303.698 502.368 304.007 499.361 305.673C496.354 307.34 493.836 308.549 493.51 316.895C493.184 325.24 492.784 330.333 492.784 330.333C508.824 331.188 524.917 330.625 540.837 328.654L538.822 307.609C538.5 306.633 537.896 305.754 537.073 305.062C536.25 304.369 535.238 303.889 534.142 303.671C530.468 303.066 524.795 303.214 524.454 301.4C524.113 299.586 524.958 298.968 524.958 298.968C524.958 298.968 531.638 301.4 535.978 299.572C540.319 297.745 545.177 295.339 546.007 292.302C546.836 289.265 549.458 278.957 548.969 278.5C548.481 278.044 555.502 272.896 555.798 261.03C556.094 249.164 547.414 233.427 535.875 229.033C534.087 228.423 532.364 227.868 530.705 227.366Z" fill="#455A64"/>
<path d="M509.36 254.176C509.36 254.176 534.186 247.336 530.483 273.38C530.483 273.38 503.938 276.404 509.36 254.176Z" fill="#263238"/>
<path d="M541.178 272.816C541.178 272.816 530.72 250.185 549.058 252.443C549.058 252.51 559.013 268.825 541.178 272.816Z" fill="#263238"/>
<path d="M574.744 301.212C574.744 301.212 570.3 302.556 569.204 303.658C568.108 304.76 566.449 308.764 564.627 309.248C563.079 309.472 561.495 309.338 560.02 308.858C560.02 308.858 559.057 303.994 557.057 301.83C555.057 299.666 554.554 300.177 554.554 300.177C554.554 300.177 549.532 300.07 549.799 297.489C549.799 297.489 551.887 295.272 555.428 298.363C555.936 298.814 556.607 299.083 557.317 299.123C558.027 299.162 558.728 298.969 559.294 298.578C561.279 297.113 561.575 293.511 561.368 291.106C561.368 291.106 559.368 286.9 562.493 286.053C562.493 286.053 565.115 286.228 563.679 291.146C563.679 291.146 561.383 296.374 564.553 298.443C564.553 298.443 567.13 299.465 570.033 294.922L570.996 293.256C570.996 293.256 571.159 289.655 574.61 289.56C574.811 289.554 575.008 289.612 575.166 289.726C575.323 289.839 575.431 290 575.47 290.179C575.65 291.032 575.476 291.917 574.981 292.661C574.486 293.405 573.705 293.957 572.788 294.21C572.788 294.21 568.833 296.898 569.352 300.002C569.352 300.002 570.552 301.171 573.529 299.935L574.67 299.545C574.67 299.545 578.417 296.643 578.965 297.973C579.528 299.613 577.395 301.333 574.744 301.212Z" fill="#455A64"/>
<path d="M560.005 308.16L555.161 326.866L559.353 326.261L563.678 325.482L566.182 308.106L560.005 308.16Z" fill="#455A64"/>
<g opacity="0.2">
<path opacity="0.2" d="M506.293 234.153C505.385 234.152 504.504 234.432 503.795 234.948C503.086 235.464 502.593 236.184 502.398 236.988C502.266 237.822 502.445 238.671 502.907 239.402C503.369 240.132 504.086 240.702 504.945 241.02C505.829 241.291 506.788 241.282 507.666 240.994C508.543 240.706 509.287 240.156 509.774 239.434C510.214 238.688 510.355 237.826 510.174 236.996C509.993 236.166 509.501 235.417 508.782 234.879C508.319 234.559 507.785 234.336 507.217 234.224C506.649 234.113 506.06 234.116 505.493 234.233" fill="white"/>
</g>
<path d="M513.255 259.404C512.88 259.372 512.504 259.457 512.189 259.645C511.874 259.833 511.639 260.113 511.522 260.439C511.408 260.783 511.434 261.154 511.595 261.482C511.756 261.811 512.042 262.077 512.4 262.231C512.758 262.385 513.165 262.418 513.547 262.324C513.93 262.229 514.263 262.013 514.485 261.716C514.7 261.422 514.795 261.069 514.754 260.718C514.714 260.368 514.54 260.041 514.263 259.794C514.085 259.645 513.873 259.535 513.643 259.47C513.412 259.404 513.169 259.387 512.93 259.418" fill="#455A64"/>
<path d="M513.937 264.941C513.747 264.924 513.556 264.966 513.397 265.062C513.238 265.157 513.12 265.3 513.063 265.465C513.016 265.638 513.036 265.821 513.12 265.982C513.203 266.143 513.345 266.274 513.522 266.352C513.699 266.429 513.899 266.447 514.089 266.403C514.279 266.359 514.445 266.255 514.559 266.11C514.655 265.992 514.711 265.85 514.718 265.704C514.725 265.557 514.684 265.411 514.6 265.286C514.515 265.16 514.392 265.061 514.245 264.999C514.098 264.938 513.934 264.917 513.774 264.941" fill="#455A64"/>
<g opacity="0.2">
<path opacity="0.2" d="M500.368 242.512C500.023 242.628 499.734 242.851 499.552 243.141C499.37 243.431 499.306 243.77 499.371 244.099C499.436 244.428 499.627 244.725 499.909 244.94C500.192 245.154 500.548 245.271 500.916 245.271C501.284 245.271 501.641 245.154 501.923 244.94C502.206 244.725 502.396 244.428 502.462 244.099C502.527 243.77 502.463 243.431 502.28 243.141C502.098 242.851 501.809 242.628 501.464 242.512" fill="white"/>
</g>
<path d="M523.062 275.853C522.675 275.924 522.277 275.924 521.891 275.853C520.82 275.82 519.757 275.675 518.721 275.423C515.243 274.624 512.127 272.86 509.808 270.375C507.49 267.891 506.085 264.812 505.79 261.568C505.678 260.598 505.678 259.621 505.79 258.652C505.802 258.294 505.892 257.942 506.056 257.617C506.204 257.617 505.923 259.122 506.279 261.501C506.707 264.601 508.12 267.522 510.345 269.908C512.57 272.294 515.511 274.042 518.81 274.939C521.343 275.719 523.076 275.732 523.062 275.853Z" fill="#263238"/>
<path d="M530.527 259.122C528.684 256.943 526.42 255.085 523.847 253.639C521.157 252.385 518.243 251.575 515.24 251.247C516.132 251.044 517.061 251.016 517.966 251.166C520.171 251.404 522.301 252.039 524.231 253.034C526.162 254.028 527.854 255.363 529.209 256.958C529.822 257.581 530.272 258.32 530.527 259.122Z" fill="#263238"/>
<path d="M538.111 261.917C537.84 261.259 537.7 260.563 537.697 259.861C537.482 258.164 537.649 256.445 538.186 254.808C538.475 253.976 538.944 253.204 539.564 252.538C540.184 251.871 540.944 251.323 541.8 250.924C542.138 250.731 542.515 250.601 542.91 250.543C543.305 250.486 543.708 250.501 544.096 250.588C543.399 250.808 542.716 251.064 542.052 251.354C540.567 252.215 539.457 253.516 538.911 255.037C538.411 256.598 538.186 258.222 538.245 259.848C538.326 260.539 538.281 261.239 538.111 261.917Z" fill="#263238"/>
<path d="M549.977 270.343C549.688 271.055 549.236 271.703 548.651 272.245C548.067 272.787 547.362 273.21 546.584 273.488C545.867 273.876 545.067 274.122 544.238 274.21C543.408 274.298 542.567 274.226 541.77 273.998C543.291 273.763 544.78 273.385 546.214 272.87C547.564 272.151 548.825 271.304 549.977 270.343Z" fill="#263238"/>
<path d="M535.638 283.419C535.638 283.5 535.341 283.782 534.63 283.943C534.159 284.049 533.668 284.068 533.188 284C532.708 283.931 532.247 283.777 531.834 283.546C531.42 283.314 531.061 283.01 530.778 282.652C530.496 282.293 530.294 281.887 530.187 281.457C530.038 280.798 530.187 280.409 530.275 280.409C530.364 280.409 530.453 280.785 530.705 281.296C531.012 281.962 531.527 282.532 532.186 282.935C532.876 283.305 533.667 283.487 534.468 283.459C535.193 283.419 535.593 283.311 535.638 283.419Z" fill="#263238"/>
<path d="M531.312 299.828C530.441 300.03 529.531 300.057 528.646 299.908C526.488 299.666 524.409 299.021 522.54 298.012C520.671 297.003 519.053 295.654 517.788 294.049C517.212 293.422 516.807 292.681 516.603 291.885C517.19 292.476 517.734 293.1 518.233 293.753C520.906 296.692 524.625 298.693 528.75 299.411C529.613 299.497 530.47 299.636 531.312 299.828Z" fill="#263238"/>
<path d="M502.99 330.535C502.476 326.252 502.476 321.931 502.99 317.647C503.504 321.931 503.504 326.252 502.99 330.535Z" fill="#263238"/>
<path d="M518.233 325.549C516.134 326.277 513.874 326.54 511.641 326.315C509.998 326.388 508.377 325.947 507.049 325.065C506.071 324.246 506.086 323.412 506.175 323.426C506.264 323.439 506.486 324.084 507.39 324.676C508.687 325.357 510.173 325.684 511.67 325.616C515.27 325.791 518.188 325.348 518.233 325.549Z" fill="#263238"/>
<path d="M532.734 329.46C532.193 327.708 531.889 325.903 531.831 324.084C531.528 322.279 531.478 320.445 531.683 318.628C532.555 322.186 532.908 325.832 532.734 329.473V329.46Z" fill="#263238"/>
<path d="M532.009 320.778C531.569 321.998 530.653 323.03 529.434 323.681C528.215 324.332 526.776 324.557 525.387 324.313C526.641 323.991 527.865 323.577 529.046 323.077C530.898 322.109 531.801 320.671 532.009 320.778Z" fill="#263238"/>
<path d="M546.644 225.955C544.982 226.631 543.411 227.479 541.963 228.482C540.686 229.662 539.568 230.974 538.63 232.392C538.541 232.392 538.63 231.774 539.045 230.914C539.611 229.788 540.431 228.782 541.452 227.961C542.472 227.139 543.67 226.52 544.97 226.143C545.977 225.875 546.629 225.875 546.644 225.955Z" fill="#455A64"/>
<path d="M548.451 224.517C547.992 224.31 547.463 224.268 546.971 224.4C546.479 224.532 546.06 224.829 545.799 225.23C545.63 225.519 545.56 225.847 545.6 226.173C545.64 226.498 545.787 226.806 546.022 227.054C546.258 227.302 546.57 227.48 546.919 227.565C547.268 227.649 547.636 227.636 547.977 227.528C548.266 227.43 548.526 227.273 548.738 227.068C548.949 226.864 549.105 226.618 549.194 226.35C549.283 226.082 549.302 225.799 549.25 225.523C549.199 225.247 549.077 224.986 548.895 224.759C548.776 224.603 548.613 224.48 548.422 224.402C548.232 224.324 548.022 224.294 547.814 224.316" fill="#455A64"/>
<path d="M539.845 223.509C538.179 224.174 536.608 225.018 535.164 226.022C533.887 227.203 532.768 228.515 531.831 229.933C531.742 229.933 531.831 229.328 532.231 228.455C532.806 227.327 533.633 226.32 534.66 225.498C535.682 224.676 536.883 224.058 538.185 223.684C539.119 223.415 539.83 223.429 539.845 223.509Z" fill="#455A64"/>
<path d="M541.652 222.058C541.191 221.852 540.661 221.812 540.168 221.947C539.676 222.081 539.259 222.381 539 222.784C538.827 223.072 538.755 223.401 538.793 223.728C538.832 224.054 538.979 224.362 539.216 224.611C539.453 224.859 539.768 225.036 540.118 225.118C540.469 225.2 540.838 225.182 541.178 225.068C541.467 224.972 541.727 224.817 541.938 224.614C542.149 224.411 542.306 224.166 542.395 223.899C542.484 223.632 542.503 223.349 542.451 223.074C542.4 222.799 542.278 222.539 542.096 222.313C541.981 222.154 541.818 222.028 541.626 221.95C541.435 221.871 541.223 221.843 541.015 221.87" fill="#455A64"/>
<path d="M349.351 243.237L350.062 244.407C350.872 245.712 352.067 246.787 353.513 247.511L354.802 248.142L353.513 248.788C352.062 249.499 350.865 250.572 350.062 251.878L349.351 253.048L348.64 251.878C347.846 250.569 346.653 249.496 345.203 248.788L343.9 248.142L345.203 247.511C346.65 246.793 347.843 245.716 348.64 244.407L349.351 243.237Z" fill="#FAFAFA"/>
<path d="M460.61 430.667L461.321 431.836C462.115 433.145 463.308 434.218 464.758 434.927L466.062 435.572L464.758 436.203C463.315 436.917 462.131 437.995 461.351 439.308L460.64 440.463L459.929 439.308C459.13 437.994 457.932 436.916 456.478 436.203L455.189 435.572L456.478 434.927C457.928 434.215 459.126 433.143 459.929 431.836L460.61 430.667Z" fill="#EBEBEB"/>
<path d="M239.721 547.946L240.432 549.115C241.235 550.422 242.432 551.494 243.883 552.206L245.186 552.851L243.883 553.482C242.428 554.196 241.23 555.273 240.432 556.587L239.721 557.743L239.009 556.587C238.221 555.271 237.027 554.192 235.573 553.482L234.269 552.851L235.573 552.206C237.023 551.497 238.216 550.424 239.009 549.115L239.721 547.946Z" fill="#EBEBEB"/>
<path d="M716.503 28.2321L717.214 29.4012C718.004 30.7071 719.185 31.7833 720.621 32.5056L721.91 33.1372L720.621 33.7688C719.185 34.491 718.004 35.5673 717.214 36.8731L716.503 38.0423L715.807 36.8731C715.028 35.5692 713.857 34.4927 712.43 33.7688L711.156 33.1372L712.43 32.5056C713.852 31.7889 715.023 30.7221 715.807 29.4281L716.503 28.2321Z" fill="#455A64"/>
<path d="M520.217 482.419L520.928 483.588C521.715 484.893 522.897 485.966 524.335 486.679L525.624 487.324L524.335 487.956C522.893 488.67 521.71 489.749 520.928 491.06L520.217 492.216L519.521 491.06C518.738 489.745 517.549 488.666 516.099 487.956L514.811 487.324L516.099 486.679C517.545 485.97 518.733 484.896 519.521 483.588L520.217 482.419Z" fill="#455A64"/>
<path d="M110.211 102.521L110.922 103.69C111.714 105 112.901 106.077 114.344 106.795L115.618 107.426L114.344 108.058C112.901 108.776 111.714 109.853 110.922 111.162L110.211 112.331L109.515 111.162C108.724 109.853 107.537 108.776 106.093 108.058L104.819 107.426L106.093 106.795C107.537 106.077 108.724 105 109.515 103.69L110.211 102.521Z" fill="#455A64"/>
<path d="M783.961 518.905L784.672 520.074C785.462 521.38 786.643 522.456 788.079 523.178L789.368 523.81L788.079 524.455C786.641 525.168 785.458 526.241 784.672 527.546L783.961 528.715L783.265 527.546C782.477 526.238 781.288 525.164 779.843 524.455L778.569 523.81L779.843 523.178C781.286 522.46 782.474 521.383 783.265 520.074L783.961 518.905Z" fill="#455A64"/>
<path d="M709.467 394.839L710.163 396.008C710.959 397.311 712.146 398.382 713.585 399.099L714.874 399.744L713.585 400.376C712.142 401.094 710.954 402.171 710.163 403.48L709.467 404.649L708.756 403.48C707.974 402.169 706.791 401.091 705.349 400.376L704.06 399.744L705.349 399.099C706.787 398.386 707.97 397.313 708.756 396.008L709.467 394.839Z" fill="#455A64"/>
<path d="M234.269 320.563L234.98 321.733C235.77 323.038 236.951 324.115 238.387 324.837L239.676 325.469L238.387 326.1C236.951 326.822 235.77 327.899 234.98 329.205L234.269 330.374L233.573 329.205C232.771 327.903 231.586 326.828 230.151 326.1L228.863 325.469L230.151 324.837C231.586 324.109 232.771 323.035 233.573 321.733L234.269 320.563Z" fill="#455A64"/>
<path d="M865.521 289.439L865.876 290.017C866.269 290.67 866.861 291.206 867.58 291.563L868.232 291.885L867.58 292.208C866.861 292.564 866.269 293.101 865.876 293.753L865.521 294.345L865.18 293.753C864.786 293.097 864.189 292.56 863.462 292.208L862.825 291.885L863.462 291.563C864.189 291.211 864.786 290.674 865.18 290.017L865.521 289.439Z" fill="#455A64"/>
<path d="M363.897 428.221L364.223 428.812C364.587 429.48 365.158 430.036 365.867 430.411L366.489 430.761L365.837 431.056C365.105 431.39 364.493 431.908 364.075 432.548L363.69 433.112L363.364 432.521C363.001 431.849 362.429 431.289 361.719 430.908L361.097 430.572L361.749 430.277C362.486 429.943 363.103 429.426 363.527 428.785L363.897 428.221Z" fill="#455A64"/>
<path d="M810.639 142.461L810.995 143.039C811.379 143.697 811.973 144.235 812.698 144.584L813.335 144.907L812.698 145.229C811.973 145.578 811.379 146.116 810.995 146.775L810.639 147.352L810.284 146.775C809.899 146.116 809.306 145.578 808.58 145.229L807.943 144.907L808.58 144.584C809.306 144.235 809.899 143.697 810.284 143.039L810.639 142.461Z" fill="#455A64"/>
<path d="M376.177 158.856L376.532 159.447C376.932 160.095 377.522 160.63 378.236 160.993L378.888 161.315L378.236 161.624C377.52 161.991 376.93 162.531 376.532 163.183L376.177 163.815L375.836 163.237C375.438 162.58 374.842 162.039 374.118 161.678L373.481 161.369L374.118 161.046C374.837 160.685 375.432 160.15 375.836 159.501L376.177 158.856Z" fill="#455A64"/>
<path d="M186.379 51.1584L186.72 51.7497C187.124 52.3991 187.719 52.9341 188.438 53.2952L189.075 53.6177L188.438 53.9268C187.714 54.288 187.118 54.8287 186.72 55.4857L186.379 56.0635L186.024 55.4857C185.626 54.8331 185.036 54.2935 184.32 53.9268L183.609 53.6177L184.261 53.2952C184.975 52.9321 185.564 52.3973 185.964 51.7497L186.379 51.1584Z" fill="#455A64"/>
<path d="M553.398 94.0681L554.598 96.0705C555.962 98.3423 558.019 100.209 560.523 101.446L562.745 102.548L560.523 103.65C558.019 104.887 555.962 106.754 554.598 109.025L553.398 111.041L552.184 109.025C550.82 106.754 548.763 104.887 546.259 103.65L544.037 102.548L546.259 101.446C548.763 100.209 550.82 98.3423 552.184 96.0705L553.398 94.0681Z" fill="#455A64"/>
<path d="M922.773 408.197L923.987 410.213C925.351 412.485 927.408 414.351 929.912 415.588L932.12 416.69L929.912 417.792C927.408 419.029 925.351 420.896 923.987 423.168L922.773 425.17L921.588 423.181C920.224 420.909 918.167 419.043 915.662 417.806L913.441 416.704L915.662 415.602C918.167 414.365 920.224 412.498 921.588 410.226L922.773 408.197Z" fill="#455A64"/>
<path d="M172.277 483.763L173.477 485.778C174.841 488.05 176.898 489.917 179.402 491.154L181.624 492.242L179.402 493.344C176.898 494.582 174.841 496.448 173.477 498.72L172.277 500.736L171.063 498.72C169.699 496.448 167.642 494.582 165.138 493.344L162.916 492.242L165.138 491.154C167.642 489.917 169.699 488.05 171.063 485.778L172.277 483.763Z" fill="#455A64"/>
<path d="M908.375 76.235C900.109 71.8809 889.429 75.7378 881.993 81.2073C874.557 86.6768 868.306 93.8128 859.477 97.159C853.848 99.2957 847.42 99.8467 842.442 102.978C834.325 108.165 832.903 118.621 834.31 127.53C835.717 136.44 839.154 145.296 837.954 154.233C837.05 160.778 833.673 167.336 835.51 173.733C838.073 182.683 849.419 186.943 854.944 194.724C858.914 200.301 859.996 207.826 865.921 211.737C872.779 216.279 882.319 213.632 890.777 214.331C901.146 215.177 910.108 221.238 920.017 224.289C927.981 226.642 936.484 227.065 944.683 225.513C952.881 223.962 960.49 220.491 966.752 215.446C973.048 210.245 977.669 203.607 983.861 198.312C989.149 193.783 995.563 190.249 999.903 184.94C1004.24 179.632 1005.98 173.45 1007.77 167.269C1010.39 158.238 1013.03 148.844 1011.12 139.666C1008.05 125.017 994.289 114.361 987.12 100.949C984.32 95.7211 982.276 89.7408 977.092 86.3274C971.596 82.699 964.16 83.0081 957.731 81.0326C948.503 78.2105 941.526 70.7386 932.09 68.5481C927.742 67.6103 923.187 67.8388 918.979 69.2058C914.772 70.5729 911.093 73.0196 908.389 76.2484" fill="#F991DB"/>
<g opacity="0.2">
<path opacity="0.2" d="M908.375 76.235C900.109 71.8809 889.429 75.7378 881.993 81.2073C874.557 86.6768 868.306 93.8128 859.477 97.159C853.848 99.2957 847.42 99.8467 842.442 102.978C834.325 108.165 832.903 118.621 834.31 127.53C835.717 136.44 839.154 145.296 837.954 154.233C837.05 160.778 833.673 167.336 835.51 173.733C838.073 182.683 849.419 186.943 854.944 194.724C858.914 200.301 859.996 207.826 865.921 211.737C872.779 216.279 882.319 213.632 890.777 214.331C901.146 215.177 910.108 221.238 920.017 224.289C927.981 226.642 936.484 227.065 944.683 225.513C952.881 223.962 960.49 220.491 966.752 215.446C973.048 210.245 977.669 203.607 983.861 198.312C989.149 193.783 995.563 190.249 999.903 184.94C1004.24 179.632 1005.98 173.45 1007.77 167.269C1010.39 158.238 1013.03 148.844 1011.12 139.666C1008.05 125.017 994.289 114.361 987.12 100.949C984.32 95.7211 982.276 89.7408 977.092 86.3274C971.596 82.699 964.16 83.0081 957.731 81.0326C948.503 78.2105 941.526 70.7386 932.09 68.5481C927.742 67.6103 923.187 67.8388 918.979 69.2058C914.772 70.5729 911.093 73.0196 908.389 76.2484" fill="white"/>
</g>
<path d="M924.4 210.518C963.194 209.271 993.528 179.728 992.153 144.533C990.778 109.338 958.214 81.8179 919.42 83.0654C880.626 84.3129 850.292 113.855 851.667 149.051C853.042 184.246 885.606 211.766 924.4 210.518Z" fill="#F991DB"/>
<path opacity="0.4" d="M901.19 157.324C899.793 158.945 897.897 160.153 895.742 160.796C893.587 161.438 891.271 161.487 889.086 160.935C886.901 160.384 884.945 159.256 883.467 157.696C881.988 156.136 881.053 154.212 880.779 152.17C880.505 150.127 880.905 148.057 881.929 146.22C882.953 144.384 884.554 142.865 886.53 141.854C888.505 140.843 890.767 140.387 893.029 140.543C895.29 140.699 897.45 141.46 899.235 142.73C901.626 144.431 903.175 146.923 903.542 149.66C903.908 152.396 903.063 155.153 901.19 157.324Z" fill="black"/>
<path opacity="0.4" d="M908.804 124.601C907.991 125.542 906.889 126.244 905.637 126.617C904.384 126.99 903.038 127.018 901.768 126.697C900.499 126.376 899.362 125.721 898.503 124.814C897.643 123.907 897.1 122.79 896.94 121.602C896.781 120.415 897.013 119.212 897.607 118.145C898.201 117.077 899.131 116.194 900.279 115.606C901.427 115.017 902.741 114.751 904.055 114.841C905.37 114.93 906.625 115.371 907.664 116.108C908.353 116.597 908.93 117.205 909.361 117.897C909.792 118.589 910.068 119.351 910.174 120.14C910.28 120.928 910.213 121.728 909.978 122.494C909.743 123.259 909.344 123.975 908.804 124.601Z" fill="black"/>
<path d="M350.823 581.755C368.395 581.067 382.026 567.586 381.268 551.643C380.51 535.701 365.65 523.335 348.078 524.022C330.505 524.71 316.874 538.191 317.632 554.134C318.39 570.076 333.25 582.443 350.823 581.755Z" fill="#F991DB"/>
<path opacity="0.2" d="M336.019 544.989C334.997 545.093 333.963 544.919 333.05 544.489C332.137 544.06 331.384 543.394 330.888 542.576C330.392 541.759 330.174 540.826 330.263 539.896C330.351 538.966 330.741 538.081 331.385 537.352C332.028 536.624 332.895 536.085 333.876 535.804C334.857 535.522 335.908 535.512 336.896 535.772C337.883 536.033 338.764 536.554 339.425 537.269C340.087 537.984 340.499 538.861 340.611 539.789C340.761 541.03 340.361 542.275 339.501 543.25C338.64 544.225 337.388 544.851 336.019 544.989Z" fill="black"/>
<path opacity="0.2" d="M346.655 534.185C346.076 534.23 345.496 534.121 344.986 533.87C344.475 533.618 344.057 533.237 343.784 532.772C343.511 532.307 343.394 531.78 343.448 531.256C343.503 530.731 343.726 530.233 344.09 529.822C344.454 529.412 344.942 529.108 345.495 528.947C346.048 528.787 346.641 528.777 347.2 528.92C347.759 529.062 348.259 529.351 348.639 529.749C349.019 530.148 349.261 530.639 349.336 531.161C349.387 531.52 349.358 531.886 349.25 532.235C349.142 532.584 348.957 532.909 348.706 533.192C348.456 533.474 348.145 533.708 347.792 533.878C347.44 534.049 347.053 534.153 346.655 534.185Z" fill="black"/>
<path opacity="0.2" d="M356.402 536.711C356.377 536.513 356.417 536.313 356.518 536.135C356.618 535.958 356.774 535.812 356.967 535.715C357.159 535.619 357.378 535.576 357.597 535.592C357.816 535.609 358.025 535.684 358.197 535.808C358.369 535.932 358.496 536.099 358.563 536.289C358.63 536.479 358.634 536.683 358.573 536.874C358.513 537.066 358.391 537.237 358.223 537.366C358.056 537.495 357.849 537.575 357.631 537.598C357.486 537.615 357.338 537.605 357.197 537.569C357.056 537.534 356.925 537.473 356.81 537.39C356.695 537.307 356.6 537.205 356.53 537.088C356.46 536.971 356.416 536.843 356.402 536.711Z" fill="black"/>
<path d="M101.205 312.487C135.295 312.487 162.93 287.415 162.93 256.488C162.93 225.561 135.295 200.489 101.205 200.489C67.1151 200.489 39.4798 225.561 39.4798 256.488C39.4798 287.415 67.1151 312.487 101.205 312.487Z" fill="#F991DB"/>
<path opacity="0.2" d="M80.1856 276.108C80.1856 277.916 79.5945 279.684 78.487 281.187C77.3795 282.69 75.8055 283.861 73.9641 284.552C72.1227 285.244 70.0966 285.424 68.1423 285.07C66.1879 284.716 64.3932 283.845 62.9851 282.565C61.577 281.286 60.6188 279.656 60.2318 277.883C59.8448 276.109 60.0464 274.272 60.8111 272.602C61.5757 270.932 62.8691 269.506 64.5275 268.504C66.1859 267.501 68.1348 266.967 70.1276 266.97C71.4497 266.97 72.7588 267.207 73.9801 267.666C75.2013 268.125 76.3108 268.799 77.2449 269.647C78.1791 270.496 78.9196 271.504 79.4242 272.612C79.9288 273.721 80.1875 274.909 80.1856 276.108Z" fill="white"/>
<path opacity="0.2" d="M65.906 249.742C65.9207 250.808 65.5857 251.853 64.9436 252.746C64.3015 253.639 63.3814 254.338 62.3001 254.756C61.2188 255.173 60.0252 255.289 58.8709 255.089C57.7167 254.889 56.6541 254.383 55.818 253.634C54.9819 252.885 54.4102 251.927 54.1755 250.883C53.9408 249.838 54.0538 248.754 54.5 247.768C54.9462 246.781 55.7055 245.938 56.6814 245.344C57.6573 244.751 58.8058 244.434 59.9808 244.433C61.5395 244.433 63.0355 244.99 64.1446 245.984C65.2537 246.978 65.8865 248.328 65.906 249.742Z" fill="white"/>
<path d="M41.4054 270.115C41.6721 271.082 -11.4322 317.311 2.25496 327.148C15.9421 336.986 73.5346 311.734 122.625 275.772C171.714 239.811 216.479 196.068 204.199 184.564C191.919 173.061 130.594 207.235 130.594 207.235L138 211.468C138 211.468 175.033 189.886 186.883 198.258C198.733 206.63 165.182 239.367 117.973 270.625C70.7646 301.884 25.0224 323.829 17.9418 315.269C10.8613 306.708 44.2643 278.138 44.2643 278.138L41.4054 270.115Z" fill="#F991DB"/>
<path opacity="0.4" d="M41.4054 270.115C41.6721 271.082 -11.4322 317.311 2.25496 327.148C15.9421 336.986 73.5346 311.734 122.625 275.772C171.714 239.811 216.479 196.068 204.199 184.564C191.919 173.061 130.594 207.235 130.594 207.235L138 211.468C138 211.468 175.033 189.886 186.883 198.258C198.733 206.63 165.182 239.367 117.973 270.625C70.7646 301.884 25.0224 323.829 17.9418 315.269C10.8613 306.708 44.2643 278.138 44.2643 278.138L41.4054 270.115Z" fill="black"/>
<path d="M703.667 213.81C711.787 206.107 711.486 193.892 702.995 186.526C694.505 179.159 681.04 179.432 672.921 187.135C664.801 194.838 665.102 207.054 673.593 214.42C682.083 221.786 695.548 221.513 703.667 213.81Z" fill="#455A64"/>
<path d="M695.232 193.098C695.25 192.477 695.47 191.874 695.864 191.366C696.259 190.859 696.811 190.468 697.45 190.245C698.089 190.021 698.786 189.975 699.455 190.11C700.123 190.246 700.732 190.559 701.205 191.008C701.677 191.458 701.993 192.024 702.111 192.636C702.229 193.248 702.145 193.878 701.869 194.447C701.593 195.015 701.137 195.497 700.56 195.831C699.982 196.165 699.309 196.336 698.624 196.323C698.167 196.314 697.717 196.224 697.3 196.057C696.882 195.89 696.504 195.65 696.189 195.35C695.874 195.05 695.627 194.697 695.463 194.31C695.298 193.924 695.22 193.512 695.232 193.098Z" fill="#263238"/>
<path d="M702.164 200.449C702.17 200.083 702.296 199.728 702.525 199.428C702.754 199.128 703.077 198.896 703.452 198.763C703.826 198.629 704.236 198.6 704.63 198.678C705.023 198.757 705.381 198.94 705.66 199.203C705.938 199.467 706.123 199.8 706.193 200.16C706.262 200.52 706.211 200.89 706.048 201.224C705.884 201.558 705.615 201.84 705.274 202.034C704.934 202.229 704.537 202.327 704.134 202.317C703.601 202.303 703.096 202.099 702.727 201.749C702.358 201.4 702.156 200.932 702.164 200.449Z" fill="#263238"/>
<path d="M699.468 206.066C699.639 206.097 699.793 206.181 699.904 206.304C700.014 206.426 700.075 206.58 700.075 206.738C700.075 206.896 700.014 207.05 699.904 207.172C699.793 207.295 699.639 207.379 699.468 207.41C699.271 207.403 699.084 207.326 698.948 207.195C698.812 207.064 698.738 206.891 698.742 206.711C698.757 206.542 698.838 206.383 698.972 206.265C699.105 206.146 699.282 206.075 699.468 206.066Z" fill="#263238"/>
</svg>
