<svg width="80" height="80" viewBox="0 0 80 80" fill="none" xmlns="http://www.w3.org/2000/svg">
<path d="M40 1.60001C18.792 1.60001 1.59998 18.792 1.59998 40C1.59998 61.208 18.792 78.4 40 78.4C61.208 78.4 78.4 61.208 78.4 40C78.4 18.792 61.208 1.60001 40 1.60001ZM30.6 55.916H22.824V30.892H30.6V55.916ZM26.664 27.82C24.208 27.82 22.62 26.08 22.62 23.928C22.62 21.732 24.256 20.044 26.764 20.044C29.272 20.044 30.808 21.732 30.856 23.928C30.856 26.08 29.272 27.82 26.664 27.82ZM59 55.916H51.224V42.048C51.224 38.82 50.096 36.628 47.284 36.628C45.136 36.628 43.86 38.112 43.296 39.54C43.088 40.048 43.036 40.768 43.036 41.484V55.912H35.256V38.872C35.256 35.748 35.156 33.136 35.052 30.888H41.808L42.164 34.364H42.32C43.344 32.732 45.852 30.324 50.048 30.324C55.164 30.324 59 33.752 59 41.12V55.916Z" fill="#455A64"/>
</svg>
