<svg width="60" height="60" viewBox="0 0 60 60" fill="none" xmlns="http://www.w3.org/2000/svg">
<path d="M42.5 42.475C39.125 42.475 37 43.525 35.125 44.475C33.5 45.3 32.175 45.975 30 45.975C27.75 45.975 26.5 45.35 24.875 44.475C23 43.525 20.95 42.475 17.5 42.475C14.05 42.475 12 43.525 10.125 44.475C8.5 45.3 7.2 45.975 5 45.975V50.85C8.375 50.85 10.5 49.8 12.375 48.85C14 48.025 15.3 47.35 17.5 47.35C19.7 47.35 21 47.975 22.625 48.85C24.5 49.8 26.55 50.85 30 50.85C33.45 50.85 35.5 49.8 37.375 48.85C39 48.025 40.325 47.35 42.5 47.35C44.75 47.35 46 47.975 47.625 48.85C49.5 49.8 51.575 50.85 55 50.85V45.975C52.75 45.975 51.5 45.35 49.875 44.475C48 43.525 45.875 42.475 42.5 42.475ZM42.5 31.35C39.125 31.35 37 32.425 35.125 33.35C33.5 34.15 32.175 34.85 30 34.85C27.75 34.85 26.5 34.225 24.875 33.35C23 32.4 20.95 31.35 17.5 31.35C14.05 31.35 12 32.425 10.125 33.35C8.5 34.15 7.2 34.85 5 34.85V39.725C8.375 39.725 10.5 38.65 12.375 37.725C14 36.85 15.25 36.225 17.5 36.225C19.75 36.225 21 36.85 22.625 37.725C24.5 38.675 26.55 39.725 30 39.725C33.45 39.725 35.5 38.65 37.375 37.725C39 36.85 40.25 36.225 42.5 36.225C44.75 36.225 46 36.85 47.625 37.725C49.5 38.675 51.575 39.725 55 39.725V34.85C52.75 34.85 51.5 34.225 49.875 33.35C48 32.4 45.875 31.35 42.5 31.35ZM49.875 11.15C48 10.2 45.925 9.14999 42.5 9.14999C39.075 9.14999 37 10.2 35.125 11.15C33.5 11.95 32.175 12.65 30 12.65C27.75 12.65 26.5 12.025 24.875 11.15C23 10.225 20.95 9.14999 17.5 9.14999C14.05 9.14999 12 10.2 10.125 11.15C8.5 11.975 7.2 12.65 5 12.65V17.475C8.375 17.475 10.5 16.4 12.375 15.475C14 14.65 15.3 13.975 17.5 13.975C19.7 13.975 21 14.6 22.625 15.475C24.5 16.425 26.55 17.475 30 17.475C33.45 17.475 35.5 16.4 37.375 15.475C39 14.675 40.325 13.975 42.5 13.975C44.75 13.975 46 14.6 47.625 15.475C49.5 16.425 51.575 17.475 55 17.475V12.6C52.75 12.6 51.5 11.975 49.875 11.15V11.15ZM42.5 20.225C39.125 20.225 37 21.3 35.125 22.225C33.5 23.1 32.25 23.725 30 23.725C27.75 23.725 26.5 23.1 24.875 22.225C23 21.275 20.95 20.225 17.5 20.225C14.05 20.225 12 21.3 10.125 22.225C8.5 23.1 7.25 23.725 5 23.725V28.6C8.375 28.6 10.5 27.525 12.375 26.6C14 25.8 15.325 25.1 17.5 25.1C19.675 25.1 21 25.725 22.625 26.6C24.5 27.55 26.55 28.6 30 28.6C33.45 28.6 35.5 27.525 37.375 26.6C39 25.8 40.325 25.1 42.5 25.1C44.75 25.1 46 25.725 47.625 26.6C49.5 27.55 51.575 28.6 55 28.6V23.725C52.75 23.725 51.5 23.1 49.875 22.225C48 21.275 45.875 20.225 42.5 20.225Z" fill="#455A64"/>
</svg>
